<?xml version="1.0" encoding="UTF-8" standalone="no"?>
<!-- Created with Inkscape (http://www.inkscape.org/) -->

<svg
   xmlns:dc="http://purl.org/dc/elements/1.1/"
   xmlns:cc="http://creativecommons.org/ns#"
   xmlns:rdf="http://www.w3.org/1999/02/22-rdf-syntax-ns#"
   xmlns:svg="http://www.w3.org/2000/svg"
   xmlns="http://www.w3.org/2000/svg"
   xmlns:sodipodi="http://sodipodi.sourceforge.net/DTD/sodipodi-0.dtd"
   xmlns:inkscape="http://www.inkscape.org/namespaces/inkscape"
   width="256"
   height="256"
   viewBox="0 0 256 256"
   id="svg2"
   version="1.1"
   inkscape:version="0.91 r13725"
   sodipodi:docname="logo.svg"
   inkscape:export-filename="/home/naigo/NetBeansProjects/LSS/logo_32"
   inkscape:export-xdpi="16.875"
   inkscape:export-ydpi="16.875">
  <defs
     id="defs4" />
  <sodipodi:namedview
     id="base"
     pagecolor="#ffffff"
     bordercolor="#666666"
     borderopacity="1.0"
     inkscape:pageopacity="0.0"
     inkscape:pageshadow="2"
     inkscape:zoom="1.984375"
     inkscape:cx="128"
     inkscape:cy="128"
     inkscape:document-units="px"
     inkscape:current-layer="layer1"
     showgrid="true"
     units="px"
     showguides="false"
     inkscape:snap-tangential="true"
     inkscape:snap-perpendicular="true"
     inkscape:window-width="1366"
     inkscape:window-height="703"
     inkscape:window-x="0"
     inkscape:window-y="0"
     inkscape:window-maximized="1">
    <inkscape:grid
       type="xygrid"
       id="grid4706" />
  </sodipodi:namedview>
  <metadata
     id="metadata7">
    <rdf:RDF>
      <cc:Work
         rdf:about="">
        <dc:format>image/svg+xml</dc:format>
        <dc:type
           rdf:resource="http://purl.org/dc/dcmitype/StillImage" />
        <dc:title></dc:title>
      </cc:Work>
    </rdf:RDF>
  </metadata>
  <g
     inkscape:label="Layer 1"
     inkscape:groupmode="layer"
     id="layer1"
     transform="translate(0,-796.36212)">
    <path
       style="fill:#0000ff;fill-opacity:1;stroke:none;stroke-width:1;stroke-miterlimit:4;stroke-dasharray:none;stroke-opacity:1"
       d="m 130.28516,796.42462 14.17773,24.9375 -14.23242,25.0332 c 0.2936,0.008 0.58222,0.0354 0.875,0.0469 0.58939,0.023 1.17576,0.0558 1.76172,0.0918 0.67321,0.0415 1.34519,0.0861 2.01367,0.14454 0.6174,0.0539 1.23055,0.12124 1.84375,0.18945 0.64558,0.0719 1.29092,0.14485 1.93164,0.23242 0.61011,0.0833 1.21478,0.18198 1.82031,0.2793 0.62104,0.0999 1.24333,0.19608 1.85938,0.31054 0.62901,0.1168 1.25139,0.25102 1.875,0.38282 0.59634,0.1261 1.19392,0.24707 1.78515,0.38672 0.64029,0.15115 1.27217,0.3234 1.90625,0.49023 0.55159,0.1452 1.10561,0.28255 1.65235,0.43945 0.66317,0.19023 1.31685,0.40216 1.97265,0.60938 0.51903,0.16407 1.04237,0.31762 1.55664,0.49219 0.67066,0.22757 1.32987,0.47747 1.99219,0.72265 0.48479,0.17952 0.97489,0.34829 1.45508,0.53711 0.62317,0.24498 1.23439,0.513 1.84961,0.77344 0.51827,0.21945 1.04222,0.42794 1.55469,0.6582 0.87117,0.39136 1.72818,0.80842 2.58203,1.23047 0.21509,0.10634 0.43642,0.20229 0.65039,0.31055 0.0104,0.005 0.0209,0.0104 0.0312,0.0156 1.07469,0.54427 2.13432,1.11323 3.17969,1.70508 0.32101,0.18178 0.63106,0.38023 0.94921,0.56641 0.72806,0.42596 1.45717,0.85018 2.16993,1.29883 0.38831,0.24446 0.76477,0.50478 1.14843,0.75585 0.6225,0.40732 1.24745,0.81187 1.85743,1.23633 0.38053,0.26485 0.74944,0.54499 1.125,0.81641 0.61488,0.44432 1.2308,0.88603 1.83203,1.34766 0.35586,0.27325 0.69981,0.56062 1.05078,0.83984 0.58262,0.46345 1.16549,0.92664 1.73437,1.40625 0.36174,0.305 0.71425,0.62022 1.07032,0.93164 0.56177,0.49127 1.12254,0.98328 1.66992,1.49023 0.33596,0.31119 0.66175,0.63223 0.99219,0.94922 0.52843,0.50689 1.05628,1.0137 1.57031,1.53516 0.34949,0.35458 0.68854,0.71889 1.03125,1.08008 0.48907,0.5154 0.97618,1.03194 1.45117,1.56054 0.32042,0.35662 0.63337,0.71952 0.94727,1.08204 0.48542,0.56055 0.966,1.12485 1.43554,1.69921 0.27998,0.34252 0.55389,0.68978 0.82813,1.03711 0.47585,0.60262 0.94408,1.21131 1.40234,1.82813 0.27403,0.36888 0.54292,0.74138 0.81055,1.11523 0.42403,0.59226 0.84229,1.18851 1.25,1.79297 0.27164,0.40279 0.53846,0.80871 0.80273,1.2168 0.40094,0.61905 0.79208,1.24403 1.17578,1.875 0.24272,0.39916 0.48305,0.7993 0.71875,1.20312 0.3806,0.65199 0.74928,1.31077 1.11133,1.97461 0.21686,0.39769 0.43248,0.79543 0.64258,1.19727 0.35255,0.67418 0.69216,1.35542 1.02539,2.04101 0.20131,0.41423 0.40351,0.82781 0.59766,1.2461 0.321,0.69147 0.62658,1.39147 0.92773,2.09375 0.18057,0.42115 0.36378,0.84069 0.53711,1.26562 0.30488,0.74728 0.59089,1.50308 0.87305,2.26172 0.13966,0.37561 0.28395,0.74864 0.41797,1.12695 0.27636,0.77998 0.53312,1.56823 0.78515,2.35938 0.12633,0.39666 0.25878,0.79006 0.37891,1.18945 0.24489,0.81396 0.46677,1.63797 0.68555,2.46289 0.0973,0.36699 0.20286,0.73053 0.29492,1.09961 0.23001,0.92182 0.43592,1.85265 0.63281,2.78711 0.0585,0.27794 0.12412,0.55301 0.17969,0.83203 0.0845,0.42435 0.14836,0.8559 0.22461,1.28321 0.001,0.006 0.003,0.0116 0.004,0.0176 0.002,0.0137 0.005,0.0273 0.008,0.041 0.10837,0.61022 0.22418,1.21771 0.32031,1.83203 0.028,0.17923 0.065,0.35553 0.0918,0.53516 0.10155,0.68 0.17299,1.36908 0.25586,2.05469 0.009,0.0743 0.0185,0.14833 0.0274,0.22265 0.0516,0.43708 0.11913,0.86932 0.16406,1.3086 0.006,0.0616 0.0173,0.12194 0.0234,0.18359 5.9e-4,0.006 0.001,0.0117 0.002,0.0176 0.008,0.0779 0.0198,0.15441 0.0273,0.23242 l 12.47657,7 12.79101,7.17969 12.87891,-7.17969 11.97461,-6.67383 c -2.13724,-37.87539 -20.73718,-71.35005 -48.76367,-93.375 -0.80306,-0.631 -1.61328,-1.25323 -2.43164,-1.86523 -0.003,0 -0.007,2.3e-4 -0.01,-0.01 -0.81841,-0.612 -1.64319,-1.21599 -2.47656,-1.80859 -0.003,0 -0.007,2.3e-4 -0.01,-0.01 -1.66984,-1.1875 -3.36972,-2.33536 -5.09765,-3.44336 -0.003,0 -0.007,2.4e-4 -0.01,-0.01 -0.86247,-0.5528 -1.73098,-1.09641 -2.60742,-1.62891 -0.004,0 -0.008,2.3e-4 -0.0117,-0.01 -0.87603,-0.53219 -1.75879,-1.0548 -2.64844,-1.5664 -0.003,0 -0.006,2.3e-4 -0.01,-0.01 -0.89019,-0.5118 -1.7879,-1.0131 -2.69141,-1.5039 -0.003,0 -0.006,-0.002 -0.01,-0.0117 -0.90355,-0.4908 -1.81394,-0.96995 -2.73047,-1.43946 -0.003,0 -0.006,2.4e-4 -0.01,-0.01 -0.91659,-0.4693 -1.83835,-0.9272 -2.76758,-1.375 -0.004,0 -0.008,2.3e-4 -0.0117,-0.01 -0.92877,-0.4474 -1.86558,-0.88504 -2.80664,-1.31054 -0.94505,-0.4273 -1.89445,-0.84315 -2.85156,-1.24805 -0.004,0 -0.008,2.3e-4 -0.0117,-0.01 -14.64311,-6.19054 -30.68205,-9.72441 -47.50976,-10.02148 z"
       id="path4837" />
    <path
       style="fill:#ff0000;fill-opacity:1;stroke:none;stroke-width:1;stroke-miterlimit:4;stroke-dasharray:none;stroke-opacity:1"
       d="m 120.73047,796.60626 c -20.06688,1.12109 -38.901917,6.8555 -55.453126,16.17383 -0.811574,0.45691 -1.61749,0.9225 -2.417969,1.39648 -0.05525,0.0327 -0.110823,0.0649 -0.166016,0.0977 -0.732551,0.43525 -1.458611,0.88072 -2.18164,1.33008 -0.142123,0.0883 -0.284031,0.17677 -0.425781,0.26562 -0.679306,0.42589 -1.354732,0.85671 -2.025391,1.29492 -0.142848,0.0933 -0.285289,0.18741 -0.427735,0.28125 -0.691229,0.4556 -1.378761,0.91817 -2.060546,1.38672 -0.104446,0.0719 -0.208275,0.14455 -0.3125,0.2168 -0.667664,0.46177 -1.331861,0.92829 -1.990235,1.40234 -0.186457,0.13424 -0.370915,0.27107 -0.55664,0.40625 -0.60736,0.4423 -1.211334,0.88719 -1.810547,1.33985 -0.158577,0.11981 -0.314644,0.24276 -0.472656,0.36328 -0.629768,0.48034 -1.258394,0.96339 -1.878907,1.45508 -0.106343,0.0843 -0.210337,0.17126 -0.316406,0.25586 -0.629913,0.50238 -1.256815,1.00754 -1.876953,1.52148 -0.307325,0.25483 -0.609202,0.51587 -0.914063,0.77344 -0.442539,0.37376 -0.88685,0.74537 -1.324218,1.125 -0.287017,0.24912 -0.568748,0.50423 -0.853516,0.75586 -0.450583,0.39815 -0.902758,0.79485 -1.347656,1.19922 -0.75771,0.6887 -1.507097,1.38725 -2.248047,2.09375 -0.73861,0.7042 -1.467823,1.41707 -2.189453,2.13867 -0.002,0 -0.0058,-2.4e-4 -0.0078,0.01 -0.005,0 -0.009,0.01 -0.01367,0.0137 -0.71789,0.7181 -1.426213,1.44478 -2.126953,2.17968 -3.13e-4,3.3e-4 -0.0016,-3.3e-4 -0.002,0 -0.0032,0.003 -0.0066,0.006 -0.0098,0.01 -0.0092,0.01 -0.01813,0.0196 -0.02734,0.0293 -0.267478,0.28075 -0.527822,0.56841 -0.792969,0.85156 -0.476623,0.50976 -0.955497,1.01764 -1.423828,1.53515 -0.02536,0.028 -0.05083,0.0559 -0.07617,0.084 -0.675071,0.74729 -1.34052,1.50249 -1.998047,2.26562 -0.07085,0.0822 -0.140296,0.16564 -0.210937,0.24805 -0.615289,0.71778 -1.224684,1.44044 -1.824219,2.17188 -0.07101,0.0866 -0.14015,0.17489 -0.210938,0.26171 -0.570307,0.6995 -1.133753,1.40553 -1.689453,2.11719 -0.177265,0.22679 -0.349546,0.4576 -0.52539,0.68555 -0.497147,0.64557 -0.993499,1.29202 -1.478516,1.94726 -0.03549,0.048 -0.07004,0.0965 -0.105469,0.14454 -0.593027,0.8035 -1.177425,1.61197 -1.751953,2.42968 -0.03259,0.0464 -0.06318,0.0942 -0.0957,0.14063 -0.580067,0.82792 -1.15404,1.66177 -1.714844,2.5039 -0.0086,0.0129 -0.01679,0.0261 -0.02539,0.0391 -0.565922,0.85048 -1.120065,1.70958 -1.666016,2.57422 -0.04309,0.0682 -0.08594,0.13674 -0.128906,0.20507 -0.527659,0.83918 -1.048075,1.68497 -1.556641,2.53711 -0.02483,0.0416 -0.04943,0.0834 -0.07422,0.125 -0.526659,0.88474 -1.043064,1.77548 -1.548828,2.67383 -0.521664,0.92659 -1.032178,1.86007 -1.53125,2.80078 -0.499072,0.94071 -0.986778,1.88734 -1.46289,2.8418 -8.2533498,16.54541 -13.01962115,35.13247 -13.3613285,54.79687 l 24.9316405,-14.17382 25.033203,14.23242 c 0.007,-0.23657 0.02841,-0.46903 0.03711,-0.70508 0.033,-0.88904 0.07811,-1.77505 0.140625,-2.65625 0.0298,-0.42056 0.0651,-0.83912 0.101562,-1.25781 0.0507,-0.58216 0.114305,-1.15985 0.177735,-1.73828 0.10065,-0.9183 0.217359,-1.83182 0.349609,-2.74024 0.0544,-0.37337 0.110282,-0.74556 0.169922,-1.11719 0.1449,-0.90316 0.306802,-1.80084 0.482422,-2.69336 0.0754,-0.38324 0.153345,-0.76526 0.234375,-1.14648 0.18578,-0.8743 0.384799,-1.74227 0.599609,-2.60547 0.0937,-0.37669 0.189853,-0.75245 0.289063,-1.12695 0.22966,-0.86705 0.473931,-1.7271 0.732421,-2.58203 0.10997,-0.36368 0.220818,-0.72647 0.335938,-1.08789 0.27358,-0.85901 0.562994,-1.71083 0.865234,-2.55664 0.11994,-0.33559 0.240845,-0.67046 0.365235,-1.00391 0.32167,-0.86243 0.658755,-1.71677 1.009765,-2.56445 0.1289,-0.31126 0.257825,-0.62243 0.390625,-0.93164 0.36948,-0.86039 0.755087,-1.71059 1.154297,-2.55469 0.13577,-0.28705 0.270996,-0.57426 0.410156,-0.85938 0.41068,-0.84148 0.839557,-1.67192 1.279297,-2.49609 0.15035,-0.28178 0.299425,-0.56404 0.453125,-0.84375 0.46277,-0.84222 0.942937,-1.67317 1.435547,-2.49609 0.13877,-0.23181 0.274916,-0.46508 0.416016,-0.69532 0.504,-0.82243 1.025334,-1.63165 1.558594,-2.43359 0.16543,-0.24877 0.327903,-0.49934 0.496093,-0.74609 0.55279,-0.81099 1.122888,-1.60783 1.705078,-2.39649 0.09709,-0.13151 0.194127,-0.26295 0.291016,-0.39453 0.0095,-0.0127 0.01782,-0.0263 0.02734,-0.0391 0.0078,-0.0104 0.01563,-0.0208 0.02344,-0.0312 0.02992,-0.0404 0.05962,-0.0809 0.08984,-0.1211 0.07257,-0.0964 0.149534,-0.18919 0.222656,-0.28515 0.512991,-0.67571 1.038068,-1.34181 1.572266,-2 0.0085,-0.0104 0.01693,-0.0208 0.02539,-0.0312 0.17616,-0.21658 0.348924,-0.43574 0.527344,-0.65039 0.05077,-0.0611 0.105273,-0.11881 0.15625,-0.17969 0.674726,-0.80759 1.364058,-1.6015 2.070313,-2.38086 0.05982,-0.0671 0.119046,-0.13478 0.179687,-0.20117 0.06742,-0.0738 0.139289,-0.14331 0.207032,-0.2168 0.62683,-0.68171 1.265547,-1.35273 1.916015,-2.01172 0.0026,-0.003 0.0052,-0.005 0.0078,-0.008 0.15119,-0.15296 0.298732,-0.30923 0.451172,-0.46094 0.0095,-0.009 0.01982,-0.0179 0.0293,-0.0273 0.798274,-0.7945 1.615305,-1.56857 2.447266,-2.32813 0.07385,-0.0694 0.147489,-0.139 0.222656,-0.20703 0.04688,-0.0424 0.09557,-0.0827 0.142578,-0.125 0.840606,-0.75779 1.693135,-1.50345 2.566407,-2.22461 0.05817,-0.048 0.117472,-0.0947 0.175781,-0.14257 0.878405,-0.72115 1.773735,-1.42257 2.683594,-2.10547 0.170926,-0.12832 0.345567,-0.25196 0.517578,-0.37891 0.808866,-0.59681 1.626658,-1.18216 2.458984,-1.74805 0.09137,-0.0621 0.18486,-0.12116 0.277344,-0.18164 0.151416,-0.099 0.302333,-0.19873 0.453125,-0.29883 0.771329,-0.51188 1.547627,-1.01514 2.337891,-1.5 0.290096,-0.17803 0.584365,-0.34911 0.876953,-0.52343 0.75397,-0.4491 1.513081,-0.88839 2.283203,-1.3125 0.332077,-0.18294 0.666946,-0.36085 1.001953,-0.53907 0.754966,-0.40149 1.515686,-0.79276 2.285156,-1.16992 0.346813,-0.17005 0.695237,-0.33692 1.044922,-0.50195 0.760168,-0.35863 1.527399,-0.70451 2.300781,-1.03906 0.199662,-0.0864 0.401177,-0.16899 0.601563,-0.25391 0.180471,-0.0765 0.35973,-0.15544 0.541015,-0.23047 0.764217,-0.31617 1.534322,-0.61975 2.310546,-0.91211 0.38765,-0.14605 0.77546,-0.29161 1.16602,-0.43164 0.78805,-0.28243 1.58326,-0.54713 2.38281,-0.80469 0.39342,-0.12679 0.78552,-0.25626 1.18164,-0.37695 0.80685,-0.2457 1.62174,-0.47334 2.43945,-0.69336 0.39896,-0.1074 0.79581,-0.2191 1.19727,-0.32031 0.81111,-0.20437 1.63018,-0.38571 2.45117,-0.56445 0.4266,-0.0929 0.85012,-0.19338 1.2793,-0.2793 0.83315,-0.16669 1.67507,-0.30931 2.51758,-0.44922 0.40613,-0.0675 0.80856,-0.14389 1.21679,-0.20508 0.93128,-0.1395 1.87076,-0.25115 2.8125,-0.35742 0.35102,-0.0397 0.69837,-0.092 1.05078,-0.12695 0.0642,-0.006 0.12713,-0.0172 0.19141,-0.0234 l 7,-12.47656 7.17969,-12.79102 -7.17969,-12.8789 -6.67578,-11.97852 z"
       id="path4835" />
    <path
       style="fill:#ffff00;fill-opacity:1;stroke:none;stroke-width:1;stroke-miterlimit:4;stroke-dasharray:none;stroke-opacity:1"
       d="m 25.074219,917.83868 -12.878907,7.17969 -11.97460888,6.67383 c 2.13675628,37.87613 20.73673388,71.3498 48.76367188,93.375 0.803056,0.631 1.613283,1.2532 2.431641,1.8652 0.003,0 0.0067,0 0.0098,0.01 0.818409,0.6119 1.643185,1.2159 2.476563,1.8086 0.0031,0 0.0067,0 0.0098,0.01 1.669832,1.1875 3.369725,2.3354 5.097657,3.4434 0.0032,0 0.0066,0 0.0098,0.01 0.862474,0.5528 1.730977,1.0963 2.607422,1.6289 0.0037,0 0.008,0 0.01172,0.01 0.876029,0.5322 1.758784,1.0549 2.648437,1.5664 0.0033,0 0.0065,0 0.0098,0.01 0.890195,0.5118 1.787905,1.0131 2.691406,1.5039 0.0033,0 0.0064,0 0.0098,0.01 0.903557,0.4907 1.813938,0.97 2.730469,1.4394 0.0034,0 0.0064,0 0.0098,0.01 0.916587,0.4694 1.83835,0.9272 2.767578,1.375 0.0039,0 0.0078,0 0.01172,0.01 0.928768,0.4474 1.865578,0.8851 2.806641,1.3106 0.945042,0.4273 1.894455,0.8432 2.851562,1.248 0.004,0 0.0077,0 0.01172,0.01 14.637665,6.1894 30.66964,9.724 47.49023,10.0234 l -14.1582,-24.9023 14.23242,-25.0332 c -0.2936,-0.01 -0.58222,-0.035 -0.875,-0.047 -0.58939,-0.023 -1.17576,-0.056 -1.76172,-0.092 -0.67321,-0.042 -1.34519,-0.086 -2.01367,-0.1445 -0.6174,-0.054 -1.23055,-0.1213 -1.84375,-0.1895 -0.64558,-0.072 -1.29092,-0.1448 -1.93164,-0.2324 -0.61011,-0.083 -1.21478,-0.1819 -1.82031,-0.2793 -0.62104,-0.1 -1.24333,-0.196 -1.85938,-0.3106 -0.62901,-0.1168 -1.25139,-0.251 -1.875,-0.3828 -0.59634,-0.1261 -1.19392,-0.2471 -1.78515,-0.3867 -0.64029,-0.1512 -1.27217,-0.3233 -1.90625,-0.49021 -0.55159,-0.14519 -1.10561,-0.28255 -1.65235,-0.43945 -0.66317,-0.19023 -1.31685,-0.40216 -1.97265,-0.60938 -0.51903,-0.16407 -1.04237,-0.31762 -1.55664,-0.49219 -0.67066,-0.22757 -1.32987,-0.47746 -1.99219,-0.72265 -0.48479,-0.17951 -0.974888,-0.34829 -1.455078,-0.53711 -0.62317,-0.24498 -1.234389,-0.513 -1.84961,-0.77344 -0.51827,-0.21945 -1.042217,-0.42793 -1.554687,-0.6582 -0.87117,-0.39135 -1.728181,-0.80842 -2.582031,-1.23047 -0.21509,-0.10633 -0.436421,-0.2023 -0.650391,-0.31055 -0.0104,-0.005 -0.02095,-0.0104 -0.03125,-0.0156 -1.07469,-0.54427 -2.134317,-1.11323 -3.179687,-1.70508 -0.32101,-0.18178 -0.631069,-0.38023 -0.949219,-0.56641 -0.72806,-0.42596 -1.457162,-0.85018 -2.169922,-1.29883 -0.38831,-0.24446 -0.764778,-0.50478 -1.148437,-0.75586 -0.622501,-0.40731 -1.247442,-0.81186 -1.857422,-1.23632 -0.38053,-0.26485 -0.74944,-0.54499 -1.125,-0.81641 -0.61488,-0.44432 -1.230802,-0.88603 -1.832032,-1.34766 -0.35586,-0.27325 -0.699811,-0.56062 -1.050781,-0.83984 -0.58262,-0.46345 -1.165495,-0.92664 -1.734375,-1.40625 -0.36174,-0.305 -0.714242,-0.62022 -1.070312,-0.93164 -0.56177,-0.49127 -1.122542,-0.98327 -1.669922,-1.49023 -0.33596,-0.3112 -0.661748,-0.63223 -0.992188,-0.94922 -0.52843,-0.50689 -1.056282,-1.0137 -1.570312,-1.53516 -0.34949,-0.35458 -0.68854,-0.71889 -1.03125,-1.08008 -0.48907,-0.5154 -0.976182,-1.03196 -1.451172,-1.56054 -0.32042,-0.35663 -0.633366,-0.71952 -0.947266,-1.08204 -0.48542,-0.56055 -0.966007,-1.12486 -1.435547,-1.69922 -0.27998,-0.34252 -0.553885,-0.68977 -0.828125,-1.0371 -0.47585,-0.60262 -0.944083,-1.21132 -1.402343,-1.82813 -0.27403,-0.36888 -0.542917,-0.74138 -0.810547,-1.11523 -0.42403,-0.59226 -0.84229,-1.18851 -1.25,-1.79297 -0.27164,-0.40279 -0.538465,-0.80871 -0.802735,-1.2168 -0.40094,-0.61905 -0.792081,-1.24403 -1.175781,-1.875 -0.24272,-0.39916 -0.48305,-0.7993 -0.71875,-1.20312 -0.3806,-0.65198 -0.749278,-1.31077 -1.111328,-1.97461 -0.21686,-0.39769 -0.432478,-0.79543 -0.642578,-1.19727 -0.35255,-0.67418 -0.692161,-1.35542 -1.025391,-2.04101 -0.20131,-0.41423 -0.403506,-0.82781 -0.597656,-1.2461 -0.321,-0.69147 -0.626584,-1.39147 -0.927734,-2.09375 -0.18057,-0.42115 -0.36378,-0.84069 -0.53711,-1.26562 -0.30488,-0.74728 -0.590887,-1.50308 -0.873047,-2.26172 -0.13966,-0.37561 -0.283948,-0.74864 -0.417968,-1.12696 -0.27636,-0.77997 -0.533127,-1.56822 -0.785157,-2.35937 -0.12633,-0.39666 -0.258776,-0.79006 -0.378906,-1.18945 -0.24489,-0.81396 -0.466767,-1.63797 -0.685547,-2.46289 -0.0973,-0.36699 -0.202862,-0.73053 -0.294922,-1.09961 -0.23001,-0.92182 -0.435922,-1.85265 -0.632812,-2.78711 -0.0585,-0.27794 -0.124118,-0.55301 -0.179688,-0.83203 -0.20912,-1.04963 -0.39009,-2.10948 -0.55664,-3.17383 -0.028,-0.17923 -0.065,-0.35553 -0.0918,-0.53516 -0.17722,-1.1868 -0.324146,-2.3823 -0.447266,-3.58594 -0.006,-0.0616 -0.01734,-0.12194 -0.02344,-0.18359 -5.9e-4,-0.006 -9.53e-4,-0.0117 -0.002,-0.0176 -0.008,-0.0779 -0.01984,-0.15441 -0.02734,-0.23242 l -12.476563,-7 -12.791015,-7.17969 z"
       id="path4833" />
    <path
       style="fill:#00ff00;fill-opacity:1;stroke:none;stroke-width:1;stroke-miterlimit:4;stroke-dasharray:none;stroke-opacity:1"
       d="m 205.97656,926.59845 c -0.007,0.23657 -0.0284,0.46903 -0.0371,0.70508 -0.033,0.88904 -0.0781,1.77505 -0.14062,2.65625 -0.0298,0.42056 -0.0651,0.83912 -0.10156,1.25781 -0.0507,0.58216 -0.11431,1.15985 -0.17774,1.73828 -0.10065,0.9183 -0.21736,1.83181 -0.34961,2.74023 -0.0544,0.37337 -0.11028,0.74556 -0.16992,1.11719 -0.1449,0.90316 -0.3068,1.80085 -0.48242,2.69336 -0.0754,0.38325 -0.15335,0.76527 -0.23438,1.14649 -0.18578,0.8743 -0.3848,1.74226 -0.59961,2.60546 -0.0937,0.37669 -0.18985,0.75246 -0.28906,1.12696 -0.22966,0.86705 -0.47393,1.7271 -0.73242,2.58203 -0.10997,0.36368 -0.22082,0.72647 -0.33594,1.08789 -0.27358,0.85901 -0.56299,1.71083 -0.86523,2.55664 -0.11994,0.33559 -0.24085,0.67046 -0.36524,1.00391 -0.32167,0.86243 -0.65875,1.71677 -1.00976,2.56445 -0.1289,0.31126 -0.25783,0.62243 -0.39063,0.93164 -0.36948,0.86039 -0.75508,1.71059 -1.15429,2.55469 -0.13577,0.28705 -0.271,0.57425 -0.41016,0.85937 -0.41068,0.84148 -0.83956,1.67193 -1.2793,2.4961 -0.15035,0.28178 -0.29942,0.56404 -0.45312,0.84375 -0.46277,0.84222 -0.94294,1.67317 -1.43555,2.49609 -0.13877,0.23181 -0.27491,0.46507 -0.41601,0.69531 -0.504,0.82243 -1.02534,1.63166 -1.5586,2.4336 -0.16543,0.24877 -0.3279,0.49934 -0.49609,0.74609 -0.55279,0.81099 -1.12289,1.60782 -1.70508,2.39648 -0.0816,0.11056 -0.1629,0.22127 -0.24414,0.33204 -0.0153,0.0206 -0.0296,0.042 -0.0449,0.0625 -0.01,0.0127 -0.0179,0.0263 -0.0274,0.0391 -0.0217,0.029 -0.0447,0.057 -0.0664,0.0859 -0.0164,0.022 -0.0323,0.0444 -0.0488,0.0664 -0.0433,0.0575 -0.0894,0.11261 -0.13281,0.16992 -0.54776,0.72427 -1.10958,1.43642 -1.68164,2.14063 -0.002,0.002 -0.004,0.004 -0.006,0.006 -0.17616,0.21658 -0.34893,0.43574 -0.52735,0.65039 -0.0404,0.0486 -0.0844,0.0941 -0.125,0.14258 -0.70027,0.83918 -1.41611,1.66392 -2.15039,2.47265 -0.0437,0.0488 -0.0867,0.0981 -0.13086,0.14649 -0.0531,0.0582 -0.10877,0.1139 -0.16211,0.17187 -0.64311,0.70052 -1.30071,1.38789 -1.96875,2.06446 -0.15119,0.15296 -0.29873,0.30922 -0.45117,0.46093 -6.5e-4,6.5e-4 -0.001,0.001 -0.002,0.002 -0.82093,0.81779 -1.66295,1.61373 -2.51953,2.39453 -0.0592,0.0554 -0.11761,0.1116 -0.17774,0.16601 -0.0401,0.0363 -0.0829,0.0693 -0.12304,0.10547 -0.84701,0.76409 -1.7038,1.51727 -2.58399,2.24414 -0.0582,0.048 -0.11747,0.0947 -0.17578,0.14258 -0.87841,0.72115 -1.77373,1.42257 -2.68359,2.10547 -0.17092,0.12832 -0.34557,0.25196 -0.51758,0.37891 -0.80887,0.59681 -1.62666,1.18215 -2.45899,1.74804 -0.24097,0.16387 -0.48757,0.31924 -0.73046,0.48047 -0.77134,0.51189 -1.54763,1.01515 -2.3379,1.5 -0.29009,0.17804 -0.58436,0.34912 -0.87695,0.52344 -0.75397,0.4491 -1.51308,0.88839 -2.2832,1.3125 -0.33208,0.18294 -0.66695,0.36085 -1.00195,0.53906 -0.75497,0.4015 -1.51569,0.79276 -2.28516,1.16992 -0.34682,0.17004 -0.69524,0.33693 -1.04492,0.50196 -0.76017,0.35863 -1.52739,0.70451 -2.30078,1.03906 -0.37948,0.16421 -0.76001,0.32604 -1.14258,0.48437 -0.76422,0.31616 -1.53433,0.61975 -2.31055,0.91211 -0.38765,0.14605 -0.77545,0.29161 -1.16601,0.43164 -0.78805,0.28243 -1.58326,0.54714 -2.38282,0.80469 -0.39342,0.1268 -0.78552,0.25626 -1.18164,0.37695 -0.80685,0.2457 -1.62174,0.47334 -2.43945,0.69336 -0.39896,0.1074 -0.79581,0.2191 -1.19727,0.32034 -0.81111,0.2044 -1.63018,0.3857 -2.45117,0.5644 -0.4266,0.093 -0.85012,0.1934 -1.2793,0.2793 -0.83315,0.1667 -1.67506,0.3092 -2.51757,0.4492 -0.40613,0.067 -0.80857,0.1439 -1.2168,0.2051 -0.93128,0.1395 -1.87076,0.2511 -2.8125,0.3574 -0.35102,0.04 -0.69837,0.092 -1.05078,0.127 -0.0642,0.01 -0.12713,0.016 -0.19141,0.022 l -7,12.4765 -7.17969,12.7911 7.17969,12.8789 6.67578,11.9785 c 30.27955,-1.6917 57.75138,-13.8988 78.8125,-33.041 0.75771,-0.6887 1.5071,-1.3874 2.24805,-2.0938 0.73861,-0.7042 1.46782,-1.4171 2.18945,-2.1387 0.002,-0 0.006,-0 0.008,-0.01 l 0.0137,-0.014 c 0.71789,-0.7181 1.42621,-1.4448 2.12695,-2.1797 0.001,-0 0.003,-0 0.004,-0 0.002,-0 0.004,-0.01 0.006,-0.01 0.6997,-0.734 1.39193,-1.4761 2.07422,-2.2266 0.004,-0 0.009,-0.01 0.0137,-0.014 0.008,-0.01 0.0157,-0.017 0.0234,-0.025 0.6767,-0.745 1.3447,-1.499 2.00391,-2.2598 0.004,-0 0.008,-0.01 0.0117,-0.014 0.007,-0.01 0.0129,-0.016 0.0195,-0.023 0.63864,-0.7376 1.26871,-1.4822 1.89063,-2.2344 0.0633,-0.077 0.12629,-0.1537 0.18945,-0.2304 0.5925,-0.7201 1.17696,-1.4466 1.7539,-2.1797 0.0192,-0.024 0.0394,-0.048 0.0586,-0.072 0.0267,-0.034 0.0515,-0.07 0.0781,-0.1035 0.59273,-0.7558 1.17795,-1.5178 1.75391,-2.2871 0.0128,-0.017 0.0263,-0.034 0.0391,-0.051 0.0198,-0.027 0.0388,-0.054 0.0586,-0.08 0.5596,-0.7495 1.11085,-1.50553 1.65429,-2.26755 0.0773,-0.10835 0.15354,-0.21757 0.23047,-0.32617 0.52793,-0.74517 1.04827,-1.49512 1.56055,-2.25196 0.0472,-0.0698 0.0955,-0.13906 0.14258,-0.20898 0.52977,-0.78603 1.05179,-1.57866 1.56445,-2.37695 0.0176,-0.0274 0.0352,-0.0547 0.0527,-0.082 0.0227,-0.0354 0.0437,-0.072 0.0664,-0.10742 0.49836,-0.77902 0.98888,-1.5631 1.4707,-2.35351 0.0705,-0.1157 0.14078,-0.23172 0.21094,-0.34766 0.46173,-0.76288 0.91519,-1.53149 1.36133,-2.30469 0.0688,-0.11928 0.13859,-0.23789 0.20703,-0.35742 0.42742,-0.7463 0.84707,-1.49822 1.25977,-2.25391 0.011,-0.0202 0.0222,-0.0403 0.0332,-0.0605 0.017,-0.0312 0.0339,-0.0625 0.0508,-0.0937 0.0561,-0.10408 0.11174,-0.20851 0.16797,-0.3125 0.38298,-0.70818 0.75883,-1.42069 1.12891,-2.13672 0.0829,-0.16073 0.16578,-0.32129 0.24804,-0.48242 0.024,-0.0476 0.0481,-0.0951 0.0723,-0.14258 0.35951,-0.70546 0.71186,-1.41414 1.05859,-2.12695 0.11366,-0.23402 0.22757,-0.46832 0.33985,-0.70313 0.006,-0.0123 0.0117,-0.0248 0.0176,-0.0371 0.29004,-0.6061 0.5741,-1.21671 0.85547,-1.82812 0.19745,-0.43072 0.39314,-0.86166 0.58594,-1.29492 0.2145,-0.48156 0.42609,-0.96457 0.63477,-1.44922 0.22206,-0.51623 0.4408,-1.03498 0.65625,-1.55469 0.18117,-0.43636 0.36063,-0.87371 0.53711,-1.3125 0.23423,-0.58335 0.46359,-1.1683 0.68945,-1.75586 0.14493,-0.37678 0.28821,-0.75432 0.42969,-1.13281 0.24249,-0.64928 0.48068,-1.30086 0.71289,-1.95508 0.111,-0.31275 0.22139,-0.62562 0.33007,-0.93945 0.27848,-0.80453 0.54972,-1.61211 0.8125,-2.42383 0.0484,-0.14991 0.0986,-0.29909 0.14649,-0.44922 0.29895,-0.93529 0.58734,-1.87582 0.86523,-2.82031 0.0106,-0.036 0.0227,-0.0715 0.0332,-0.10743 0.006,-0.0194 0.01,-0.0392 0.0156,-0.0586 0.29896,-1.02124 0.58732,-2.04647 0.86133,-3.07812 2.60924,-9.82387 4.07059,-20.11507 4.25195,-30.7168 l -24.93554,14.17578 -25.03321,-14.23242 z"
       id="path4697" />
    <text
       xml:space="preserve"
       style="font-style:normal;font-weight:normal;font-size:40px;line-height:125%;font-family:sans-serif;letter-spacing:0px;word-spacing:0px;fill:#000000;fill-opacity:1;stroke:none;stroke-width:1px;stroke-linecap:butt;stroke-linejoin:miter;stroke-opacity:1"
       x="125.37549"
       y="942.23322"
       id="text4839"
       sodipodi:linespacing="125%"><tspan
         sodipodi:role="line"
         id="tspan4841"
         x="125.37549"
         y="942.23322"
         style="font-style:normal;font-variant:normal;font-weight:normal;font-stretch:normal;font-size:50px;font-family:Hack;-inkscape-font-specification:Hack;text-align:center;text-anchor:middle">FLUX</tspan></text>
  </g>
</svg>
